<mxfile host="app.diagrams.net" modified="2024-01-20T14:39:06.379Z" agent="Mozilla/5.0 (Windows NT 10.0; Win64; x64) AppleWebKit/537.36 (KHTML, like Gecko) Chrome/120.0.0.0 Safari/537.36" etag="sV4Vxy45jdou6bX9Ol2g" version="22.1.18" type="google">
  <diagram name="Seite-1" id="0859eqJFtxkdb-ppz1Cc">
    <mxGraphModel grid="1" page="1" gridSize="10" guides="1" tooltips="1" connect="1" arrows="1" fold="1" pageScale="1" pageWidth="827" pageHeight="1169" math="0" shadow="0">
      <root>
        <mxCell id="0" />
        <mxCell id="1" parent="0" />
        <mxCell id="y7L2XVppaXTwiacDeEOA-1" value="" style="ellipse;html=1;shape=startState;fillColor=#000000;strokeColor=#000000;" vertex="1" parent="1">
          <mxGeometry x="390" y="220" width="30" height="30" as="geometry" />
        </mxCell>
        <mxCell id="y7L2XVppaXTwiacDeEOA-2" value="" style="edgeStyle=orthogonalEdgeStyle;html=1;verticalAlign=bottom;endArrow=open;endSize=8;strokeColor=#000000;rounded=0;" edge="1" parent="1" source="y7L2XVppaXTwiacDeEOA-1">
          <mxGeometry relative="1" as="geometry">
            <mxPoint x="405" y="310" as="targetPoint" />
          </mxGeometry>
        </mxCell>
        <mxCell id="y7L2XVppaXTwiacDeEOA-5" style="edgeStyle=orthogonalEdgeStyle;rounded=0;orthogonalLoop=1;jettySize=auto;html=1;exitX=0.5;exitY=1;exitDx=0;exitDy=0;entryX=0.5;entryY=0;entryDx=0;entryDy=0;" edge="1" parent="1" source="y7L2XVppaXTwiacDeEOA-3" target="y7L2XVppaXTwiacDeEOA-4">
          <mxGeometry relative="1" as="geometry" />
        </mxCell>
        <mxCell id="y7L2XVppaXTwiacDeEOA-3" value="Staubsaugen" style="rounded=1;whiteSpace=wrap;html=1;verticalAlign=top;" vertex="1" parent="1">
          <mxGeometry x="345" y="310" width="120" height="60" as="geometry" />
        </mxCell>
        <mxCell id="y7L2XVppaXTwiacDeEOA-4" value="" style="ellipse;html=1;shape=endState;fillColor=#000000;strokeColor=#000000;" vertex="1" parent="1">
          <mxGeometry x="390" y="407" width="30" height="30" as="geometry" />
        </mxCell>
      </root>
    </mxGraphModel>
  </diagram>
</mxfile>
